#!OML:ASF F:\VICON\USERDATA\INSTALL\rory3\rory3.ASF
:FULLY-SPECIFIED
:DEGREES
102
root 0.29587747029516437 17.789164168767172 42.48512078530822 -4.703455727671555 -2.799946469912117 -1.3938683348021423
lfemur -11.781941435027932 -2.2796332113250526 -23.160763391807443
ltibia 33.51016165944031
lfoot -8.184612674010213 -2.4019282996465257
ltoes -5.788859387750834
rfemur -12.861732496896686 3.281272446557244 23.125704623595762
rtibia 38.86441431226372
rfoot -5.263109459425625 -4.8640872882963
rtoes 4.844139243247635
lowerback 10.40472966675633 0.9566471687008842 0.4928018604812114
upperback 0.6014853642516665 1.3161002075294468 0.9402485866395184
thorax -5.1712574702286025 0.6478600145628195 1.0001429528868768
lowerneck -15.941598403823637 -2.8285704897714536 -2.0185215195691786
upperneck 21.021528031916418 -3.5042786313328325 0.9982754859289498
head 9.313007455087916 -1.7795551819628503 0.12539805157799594
lclavicle -1.3860207461538632e-15 -1.842390907833122e-15
lhumerus -31.795227337931166 5.097666427223276 80.52741498491173
lradius 25.61698838393991
lwrist 4.441072543357489
lhand -26.869323877080745 24.58865654934188
lfingers 7.125019999999999
lthumb -0.5828571632104568 54.222309673150214
rclavicle -1.3880244278061617e-15 -1.8442527671762395e-15
rhumerus -28.550102234949946 -21.987018055819718 -79.51528834412505
rradius 25.87615861327124
rwrist 4.758123220760921
rhand -18.502915911822267 22.52758436029995
rfingers 7.125019999999999
rthumb 7.885288507397402 -7.146493014093507
103
root 0.2908393435695417 17.785619805515676 42.83233128380027 -4.6872922476331675 -2.2961754415421955 -1.0116805430898523
lfemur -9.106773649913602 -2.657303749408182 -23.84016460539909
ltibia 32.64543211567737
lfoot -6.698033206414384 -2.4181729373201444
ltoes -5.724681676932519
rfemur -15.46189125181916 2.9672251687358093 22.277022145561528
rtibia 39.26837574976649
rfoot -4.763943551394463 -4.795516693850048
rtoes 4.5819988844428
lowerback 10.519627297238323 0.8226488528688756 0.21625758650459181
upperback 0.665992970926353 0.9986803403637365 0.9809896895037292
thorax -5.135738643150287 0.528616150110999 1.2879043807287294
lowerneck -15.93630526388428 -2.8164434822668984 -2.020988281977978
upperneck 20.957068373983283 -3.525506558758766 0.9565578406225193
head 9.306285096569935 -1.7877242856294515 0.11679775638668882
lclavicle -1.3860207461538632e-15 -1.842390907833122e-15
lhumerus -30.143194247612676 3.5673769701911864 80.8397630967607
lradius 25.55768932245573
lwrist 4.53793609564916
lhand -26.925126181043996 24.48947031064043
lfingers 7.125019999999999
lthumb -0.752733570038244 53.916739351382084
rclavicle -1.3880244278061617e-15 -1.8442527671762395e-15
rhumerus -29.471590226662205 -22.36562518771998 -79.23779859514354
rradius 25.74197323760641
rwrist 4.950814754103776
rhand -18.4589945013842 22.5979078034757
rfingers 7.125019999999999
rthumb 7.895457102826721 -7.131327637906768
104
root 0.28177266287316427 17.77295832989446 43.53230839457048 -4.525026029642126 -1.7844474198478772 -0.5813986080423237
lfemur -6.369342393335335 -2.9682328802224225 -24.284589816301406
ltibia 31.931111713489564
lfoot -5.412033963924155 -2.4277918495299553
ltoes -5.309622821128837
rfemur -17.073033320900134 3.0256582519497126 21.874756117248033
rtibia 39.76622505434273
rfoot -4.185228661621952 -4.788230895821732
rtoes 4.3702277235598626
lowerback 10.536625551589804 0.5989907152752723 -0.25814114575215763
upperback 0.7230509819826776 0.6873085381010473 1.0375627471223732
thorax -5.099357419153871 0.39743596411058546 1.5158694871041472
lowerneck -15.978596128018403 -2.8232312781785374 -2.052268471289971
upperneck 20.90644538009628 -3.543490038322537 0.9573083252917086
head 9.335376701763138 -1.7781376057516125 0.13726446622476268
lclavicle -1.3860207461538632e-15 -1.842390907833122e-15
lhumerus -28.545230554929436 2.0371074023677873 81.02423559363349
lradius 25.4746697245823
lwrist 4.187107757054688
lhand -26.913226665679833 24.54546063277494
lfingers 7.125019999999999
lthumb -0.6263982003190613 54.163932055033094
rclavicle -1.3880244278061617e-15 -1.8442527671762395e-15
rhumerus -30.28962851468759 -22.459663830352316 -78.9324089850263
rradius 25.654826571157418
rwrist 5.143682633142298
rhand -18.407885924779105 22.665354581651226
rfingers 7.125019999999999
rthumb 7.919065977729962 -7.094727399631872
105
root 0.27019026805571317 17.757189291995434 44.53162946363976 -4.221706959654689 -1.2878731884057824 -0.10591932283057393
lfemur -4.588825086438195 -3.2288652427536104 -25.26791639498105
ltibia 31.51030998040498
lfoot -5.950847900066264 -3.4375304597402785
ltoes -4.97848925479807
rfemur -19.160803121772442 3.0589096298833622 21.231483165603528
rtibia 40.103035142489084
rfoot -4.191683857137534 -4.985269448497714
rtoes 4.2412014815545955
lowerback 10.564829757841926 0.42320222959749865 -0.5881441536767635
upperback 0.7674378004025059 0.37899675931705357 1.0929037483634874
thorax -5.041092285247814 0.2808806975499333 1.7651685568737165
lowerneck -16.002523434771337 -2.8200858157590982 -2.06347818864393
upperneck 20.95928986474025 -3.5127915728470174 1.017000861991017
head 9.343407978193339 -1.7687747698923328 0.14713573989950346
lclavicle -1.3860207461538632e-15 -1.842390907833122e-15
lhumerus -27.09523900309386 0.5851576461970986 81.08398208439768
lradius 25.34882270084168
lwrist 4.109589218063921
lhand -27.008665741979456 24.37389832900686
lfingers 7.125019999999999
lthumb -0.7559217709950808 53.91229545339227
rclavicle -1.3880244278061617e-15 -1.8442527671762395e-15
rhumerus -31.07623643269906 -22.50759332049736 -78.61300391199555
rradius 25.672407238654987
rwrist 5.54698131043836
rhand -18.384224376207435 22.68952423113803
rfingers 7.125019999999999
rthumb 7.945524867569808 -7.063207340738525
